<?xml version="1.0" encoding="UTF-8"?>
<svg id="Calque_1" data-name="Calque 1" xmlns="http://www.w3.org/2000/svg" viewBox="0 0 512 512">
  <defs>
    <style>
      .cls-1 {
        fill: #fff;
      }

      .cls-2 {
        fill: #131a2e;
      }
    </style>
  </defs>
  <circle class="cls-2" cx="256" cy="256" r="256"/>
  <path class="cls-1" d="M370.26,350.89v55.52h-125.23c-68.43,0-103.28-37.44-103.28-82.19,0-31.42,17.21-57.67,49.06-72.73-25.82-15.92-39.59-39.59-39.59-67.99,0-44.33,34.86-77.89,103.28-77.89v.86-.86h109.31v55.51h-105.87c-29.7,0-45.19,14.2-45.19,31.42,0,18.07,14.63,33.57,45.19,33.57h78.32v55.51h-88.22c-30.12,0-44.76,15.49-44.76,33.57s15.49,35.72,44.76,35.72h122.22Z"/>
</svg>