<?xml version="1.0" encoding="UTF-8"?>
<svg id="Calque_1" data-name="Calque 1" xmlns="http://www.w3.org/2000/svg" viewBox="0 0 461.86 73.36">
  <defs>
    <style>
      .cls-1 {
        fill: #1d1d1b;
      }
    </style>
  </defs>
  <path class="cls-1" d="M63.52,18.02H16.43v10.98h34.34v14.43H16.43v10.98h47.09v14.43H12.05v-10.05H2v-19.73h10.05v-5.68H2V13.64h10.05V3.59h51.47v14.43ZM12.05,29v-10.98h-5.68v10.98h5.68ZM12.05,54.41v-10.98h-5.68v10.98h5.68ZM16.43,7.97v5.68h42.72v-5.68H16.43ZM46.4,33.37h-29.97v5.68h29.97v-5.68ZM59.15,58.78H16.43v5.68h42.72v-5.68Z"/>
  <path class="cls-1" d="M141.51,68.83h-18.34l-.65-.74c-3.72-4.16-7.46-8.34-11.24-12.57-3.77-4.22-7.39-8.25-10.85-12.1h-8.53v25.41h-14.43v-29.78h10.05v-5.58h-10.05V13.55h10.05V3.59h31.46c2.73,0,5.31.53,7.73,1.58,2.42,1.06,4.53,2.48,6.33,4.28,1.8,1.8,3.23,3.91,4.28,6.33,1.05,2.42,1.58,5,1.58,7.73,0,2.36-.42,4.7-1.26,7.03-.84,2.33-2.09,4.42-3.77,6.28-1.68,1.86-3.74,3.4-6.19,4.61-2.45,1.21-5.29,1.88-8.52,2h-.09l22.43,25.41ZM87.53,29.09v-11.17h-5.68v11.17h5.68ZM87.53,43.43h-5.68v21.03h5.68v-21.03ZM102.31,39.05c2.97,3.24,5.85,6.41,8.64,9.53,1.17,1.31,2.4,2.68,3.67,4.11,1.27,1.43,2.52,2.85,3.76,4.25,1.24,1.4,2.44,2.74,3.62,4.02,1.18,1.28,2.23,2.45,3.16,3.5h6.78l-22.34-25.41h9.4c2.54-.12,4.79-.65,6.75-1.58s3.58-2.12,4.89-3.57c1.3-1.45,2.28-3.09,2.93-4.92.65-1.82.98-3.67.98-5.52,0-2.1-.4-4.1-1.21-5.98-.81-1.89-1.92-3.54-3.34-4.96-1.43-1.42-3.08-2.54-4.97-3.34s-3.88-1.21-5.99-1.21h-27.12v5.58h27.11c1.36,0,2.63.27,3.81.8,1.17.53,2.21,1.25,3.11,2.15.9.9,1.61,1.95,2.14,3.13.53,1.18.79,2.46.79,3.83s-.26,2.66-.79,3.88c-.53,1.22-1.24,2.28-2.14,3.18-.9.9-1.94,1.62-3.11,2.15-1.18.53-2.44.79-3.81.79h-27.11v5.58h10.4ZM91.91,29.09h27.1c1.55,0,2.84-.54,3.9-1.63,1.05-1.08,1.58-2.4,1.58-3.96s-.53-2.87-1.58-3.96c-1.05-1.08-2.35-1.63-3.9-1.63h-27.1v11.17Z"/>
  <path class="cls-1" d="M155.48,68.83V3.59h14.43v65.24h-14.43ZM165.53,64.46V7.97h-5.68v56.49h5.68Z"/>
  <path class="cls-1" d="M227.42,28.26v-10.15h-13.12c-2.17,0-4.25.33-6.24.98-1.99.65-3.77,1.58-5.35,2.79-1.58,1.21-2.93,2.64-4.05,4.28-1.12,1.65-1.92,3.49-2.42,5.54-.74,2.79-.74,5.8,0,9.03,1.05,4.1,3.23,7.38,6.52,9.87,3.29,2.48,7.13,3.72,11.54,3.72h13.12v-10.15h14.52v14.52h-10.14v10.14h-18.06c-3.72,0-7.31-.6-10.75-1.81s-6.56-2.9-9.35-5.07c-2.79-2.17-5.18-4.76-7.17-7.77-1.99-3.01-3.44-6.34-4.37-10.01-.62-2.42-.95-4.98-.98-7.68-.03-2.7.29-5.44.98-8.24.93-3.6,2.4-6.92,4.42-9.96,2.02-3.04,4.42-5.65,7.21-7.82,2.79-2.17,5.89-3.86,9.31-5.07,3.41-1.21,6.98-1.81,10.7-1.81h18.06v10.15h10.14v14.52h-14.52ZM227.42,13.74v-5.77h-13.68c-3.23,0-6.31.53-9.26,1.58-2.95,1.06-5.63,2.53-8.05,4.42-2.42,1.89-4.5,4.14-6.24,6.75-1.74,2.61-3.01,5.49-3.82,8.66-1.12,4.41-1.12,9,0,13.77.81,3.16,2.08,6.05,3.82,8.66,1.74,2.61,3.82,4.84,6.24,6.7s5.1,3.32,8.05,4.38c2.95,1.06,6.03,1.58,9.26,1.58h13.68v-5.77h-13.12c-2.73,0-5.3-.4-7.72-1.21-2.42-.81-4.61-1.96-6.56-3.44-1.95-1.49-3.63-3.26-5.03-5.31-1.4-2.05-2.41-4.34-3.02-6.89-.99-3.66-.99-7.41,0-11.26.62-2.48,1.63-4.76,3.02-6.84,1.4-2.08,3.07-3.86,5.03-5.35,1.95-1.49,4.14-2.64,6.56-3.44,2.42-.81,4.99-1.21,7.72-1.21h13.12ZM231.79,18.11v5.77h5.77v-5.77h-5.77ZM231.79,54.32h5.77v-5.77h-5.77v5.77Z"/>
  <path class="cls-1" d="M280.38,39.05h10.98l27.83,29.78h-19.27l-22.71-25.41h-6.89v25.41h-14.43v-29.78h10.05v-5.68h-10.05V3.59h14.43v25.41h6.89l22.71-25.41h19.27l-27.83,29.78h-10.98v5.68ZM260.27,29h5.68V7.97h-5.68v21.03ZM265.95,64.46v-21.03h-5.68v21.03h5.68ZM270.32,39.05h5.68v-5.68h-5.68v5.68ZM301.88,7.97l-18.89,21.03h6.42l19.82-21.03h-7.35ZM301.88,64.46h7.35l-19.82-21.03h-6.42l18.89,21.03Z"/>
  <path class="cls-1" d="M389.27,50.41l8.1,18.43h-15.92l-6.05-14.15h-24.01l-6.05,14.15h-15.92l8.19-18.52h10.98l2.51-5.77h-10.98l18.06-40.95,5.3,12.38,5.21-12.19,18.24,40.77h-11.17l2.51,5.86h10.98ZM342.45,64.46l4.28-9.77h-6.33l-4.37,9.77h6.42ZM346.83,40.17h6.14l8.1-18.8-2.98-6.89-11.26,25.69ZM353.34,50.31l20.2.09-2.51-5.86h-15.17l-2.51,5.77ZM369.17,40.17l-5.68-13.31-5.77,13.31h11.45ZM373.91,40.17h6.33l-11.45-25.6-2.98,6.79,8.1,18.8ZM380.15,54.69l4.19,9.68h6.42l-4.38-9.68h-6.24Z"/>
  <path class="cls-1" d="M460.56,3.59l-28.11,36.02v29.22h-14.52v-29.22l-28.01-36.02h18.24l14.15,18.24v14.61h5.77v-14.61l14.24-18.24h18.24ZM406.02,7.97h-7.17l19.08,24.57v-9.21l-11.91-15.36ZM428.08,64.46v-23.64h-5.77v23.64h5.77ZM432.45,23.32v9.21l19.17-24.57h-7.17l-12.01,15.36Z"/>
</svg>